<?xml version="1.0" encoding="UTF-8"?>
<svg xmlns="http://www.w3.org/2000/svg" version="1.1" viewBox="0 0 788.19 283.67">
  <defs>
    <style>
      .cls-1 {
        fill: #fff;
      }

      .cls-2 {
        fill: #59bcac;
      }
    </style>
  </defs>
  <!-- Generator: Adobe Illustrator 28.7.2, SVG Export Plug-In . SVG Version: 1.2.0 Build 154)  -->
  <g>
    <g id="Ebene_1">
      <g>
        <path class="cls-1" d="M261.97,130.44h-26.84V24.7h-38.83V1.97h104.49v22.72h-38.83v105.74Z"/>
        <path class="cls-1" d="M343.56,132.95c-25.59,0-48.67-15.75-48.67-50.1s23.08-50.1,48.67-50.1,48.67,15.75,48.67,50.1-23.08,50.1-48.67,50.1ZM343.56,53.86c-19.32,0-22.9,16.82-22.9,28.99s3.58,28.99,22.9,28.99,22.9-16.82,22.9-28.99-3.58-28.99-22.9-28.99Z"/>
        <path class="cls-1" d="M434.09,47.6h.36c3.94-6.08,11.45-14.85,27.55-14.85,20.93,0,39.54,16.1,39.54,49.03,0,26.12-11.81,51.17-40.08,51.17-10.38,0-21.47-3.76-27.55-14.49h-.36v11.99h-24.51V1.97h25.05v45.63ZM454.49,54.4c-17.18,0-21.47,15.39-21.47,30.6,0,14.13,6.26,27.38,22.19,27.38s20.58-17.53,20.58-28.81c0-15.03-5.37-29.17-21.29-29.17Z"/>
        <path class="cls-1" d="M544.85,23.98h-25.05V.72h25.05v23.26ZM544.85,35.25v95.19h-25.05V35.25h25.05Z"/>
        <path class="cls-1" d="M645.94,111.83c0,11.27,2.51,13.78,5.55,14.85v3.76h-27.02c-1.43-4.47-1.79-5.9-2.33-11.27-5.73,5.9-13.78,13.78-30.77,13.78-14.31,0-28.99-8.05-28.99-27.73,0-18.61,11.81-28.09,27.73-30.42l22.54-3.4c3.94-.54,8.77-2.15,8.77-7.51,0-10.56-10.02-11.09-16.46-11.09-12.52,0-14.67,7.69-15.39,13.24h-24.16c2.86-29.16,23.08-33.28,42.58-33.28,13.42,0,37.93,4.12,37.93,27.55v51.53ZM621.43,84.1c-2.51,1.97-6.62,3.58-17,5.19-9.3,1.61-17,3.94-17,14.31,0,8.77,6.8,11.45,11.63,11.45,11.09,0,22.37-7.16,22.37-18.79v-12.17Z"/>
        <path class="cls-1" d="M722.16,64.24c-1.07-6.08-3.22-12.52-16.82-12.52s-15.39,5.19-15.39,9.3c0,15.03,59.58,4.12,59.58,39.18,0,27.73-26.84,32.74-41.69,32.74-21.65,0-45.09-7.51-45.8-32.92h25.76c0,8.05,5.01,13.96,20.75,13.96,12.88,0,15.92-6.26,15.92-9.84,0-15.92-59.04-3.94-59.04-39.54,0-13.96,8.77-31.85,38.47-31.85,18.61,0,40.79,4.65,42.76,31.49h-24.51Z"/>
        <path class="cls-1" d="M207.39,151.97h56.72c43.3,0,52.25,36.86,52.25,61.19,0,27.55-10.91,67.28-53.32,67.28h-55.65v-128.47ZM233.7,258.25h26.12c21.83,0,29.17-22.01,29.17-43.12,0-37.93-18.07-40.97-29.52-40.97h-25.77v84.09Z"/>
        <path class="cls-1" d="M334.43,185.25h23.98v16.46h.36c5.19-9.66,10.91-18.97,26.12-18.97,1.61,0,3.22.18,4.83.36v25.41c-2.15-.36-4.83-.36-7.16-.36-19.5,0-23.08,12.17-23.08,22.72v49.56h-25.05v-95.19Z"/>
        <path class="cls-1" d="M482.4,252.53c-6.62,22.9-25.59,30.42-41.87,30.42-26.84,0-47.42-12.88-47.42-52.07,0-11.45,3.94-48.13,45.63-48.13,18.79,0,44.73,8.95,44.73,52.42v4.47h-65.31c.72,7.16,2.15,23.26,22.37,23.26,6.98,0,14.13-3.58,16.1-10.38h25.76ZM457.71,223.36c-1.43-15.39-11.27-20.04-19.32-20.04-11.81,0-18.07,7.51-19.5,20.04h38.83Z"/>
        <path class="cls-1" d="M525.88,173.98h-25.05v-23.26h25.05v23.26ZM525.88,185.25v95.19h-25.05v-95.19h25.05Z"/>
        <path class="cls-1" d="M578.84,280.44h-25.05v-77.29h-13.78v-17.89h13.78v-7.69c0-19.68,10.74-27.2,27.91-27.2,7.34,0,10.74.18,12.88.36v20.22h-6.98c-8.59,0-8.77,2.68-8.77,10.56v3.76h16.28v17.89h-16.28v77.29Z"/>
        <path class="cls-1" d="M635.2,280.44h-25.05v-128.47h25.05v69.42l31.49-36.14h30.78l-33.64,36.86,34.53,58.33h-30.06l-22.72-40.79-10.38,10.74v30.06Z"/>
        <path class="cls-1" d="M787.11,252.53c-6.62,22.9-25.59,30.42-41.87,30.42-26.84,0-47.42-12.88-47.42-52.07,0-11.45,3.94-48.13,45.63-48.13,18.79,0,44.73,8.95,44.73,52.42v4.47h-65.31c.72,7.16,2.15,23.26,22.37,23.26,6.98,0,14.13-3.58,16.1-10.38h25.76ZM762.42,223.36c-1.43-15.39-11.27-20.04-19.32-20.04-11.81,0-18.07,7.51-19.5,20.04h38.83Z"/>
      </g>
      <g>
        <path class="cls-2" d="M145.01,159.95v64.02c0,48.88-41.61,58.97-69.07,58.97-31.1,0-75.94-12.32-75.94-60.19v-62.81h145.01ZM25.04,189.64v29.49c0,24.64,24.84,32.92,48.67,32.92,42.82,0,46.25-20.4,46.25-33.32v-29.08H25.04Z"/>
        <path class="cls-2" d="M86.19,139.52h-32.4V33.79H0V.72h145.01v33.06h-58.82v105.74Z"/>
      </g>
    </g>
  </g>
</svg>