<?xml version="1.0" encoding="UTF-8"?>
<svg id="Ebene_2" data-name="Ebene 2" xmlns="http://www.w3.org/2000/svg" viewBox="0 0 59.31 55.44">
  <g id="Ebene_1-2" data-name="Ebene 1">
    <g>
      <path d="M45.8,4.41C41.19,1.52,35.86,0,30.39,0,14.31,0,1.23,13.08,1.23,29.15c0,3.13.49,6.2,1.46,9.14l-2.7,1.33,7.46,4.99.6-8.95-2.61,1.29c-.78-2.51-1.21-5.12-1.21-7.79C4.23,14.73,15.97,3,30.39,3c4.91,0,9.69,1.37,13.83,3.95.7.44,1.63.23,2.07-.48.44-.7.22-1.63-.48-2.07Z"/>
      <path d="M59.31,15.82l-7.46-4.99-.6,8.95,2.62-1.29c.78,2.51,1.21,5.12,1.21,7.79,0,14.42-11.73,26.15-26.15,26.15-4.91,0-9.69-1.37-13.83-3.95-.7-.44-1.63-.22-2.07.48-.44.7-.22,1.63.48,2.07,4.62,2.88,9.95,4.41,15.42,4.41,16.07,0,29.15-13.08,29.15-29.15,0-3.13-.49-6.2-1.46-9.14l2.7-1.33Z"/>
      <path d="M31.43,12.21l16.13,9.99c.63.39.63,1.32,0,1.7l-16.65,10.11c-.32.19-.71.19-1.03,0l-17.09-10.11c-.65-.39-.65-1.33,0-1.72l16.57-10c.64-.39,1.45-.38,2.09.01Z"/>
      <path d="M14.5,27.59v6.21c0,.36.19.68.51.86l14.89,8.2c.3.17.66.16.96,0l15.25-8.82c.3-.17.49-.5.49-.85v-6.03c0-.76-.83-1.23-1.49-.83l-14.24,8.67c-.31.19-.69.19-1,.01l-13.91-8.26c-.65-.38-1.47.09-1.47.85Z"/>
    </g>
  </g>
</svg>