<svg  viewBox="0 0 24 24" ><g><path d="m162.559 267.62h27.071l-13.474-32.025z"/><path d="m292.384 216.5h-14.894c.016 6.039.03 12.287.03 15.343 0 3.562.024 9.62.052 15.394 5.532-.027 11.297-.051 14.812-.051 8.639 0 15.937-7.026 15.937-15.343s-7.298-15.343-15.937-15.343z"/><path d="m498.673 211.09-44.845-5.032c-4.834-19.246-12.419-37.54-22.646-54.613l28.165-35.291c4.764-5.969 4.283-14.563-1.117-19.963l-42.427-42.426c-5.4-5.4-13.996-5.881-19.965-1.116l-35.275 28.159c-17.067-10.226-35.367-17.812-54.626-22.648l-5.035-44.833c-.853-7.59-7.27-13.327-14.907-13.327h-59.999c-7.637 0-14.055 5.738-14.906 13.327l-5.03 44.832c-19.261 4.834-37.558 12.418-54.628 22.643l-35.271-28.153c-5.969-4.767-14.563-4.285-19.964 1.116l-42.426 42.425c-5.4 5.399-5.881 13.994-1.117 19.963l28.151 35.273c-10.226 17.07-17.811 35.37-22.646 54.633l-44.831 5.03c-7.59.852-13.328 7.27-13.328 14.907v59.999c0 7.637 5.737 14.054 13.326 14.906l44.845 5.036c4.833 19.249 12.419 37.544 22.645 54.615l-28.167 35.286c-4.764 5.969-4.284 14.563 1.116 19.964l42.426 42.427c5.4 5.4 13.994 5.88 19.963 1.117l35.28-28.157c17.07 10.227 35.366 17.813 54.625 22.649l5.031 44.834c.852 7.589 7.269 13.327 14.906 13.327h59.999c7.637 0 14.054-5.737 14.906-13.326l5.036-44.845c19.25-4.834 37.544-12.42 54.618-22.647l35.291 28.165c5.969 4.766 14.564 4.284 19.963-1.117l42.426-42.427c5.4-5.4 5.881-13.996 1.116-19.965l-28.159-35.275c10.226-17.067 17.812-35.367 22.648-54.626l44.833-5.035c7.589-.853 13.326-7.27 13.326-14.906v-59.999c.001-7.637-5.737-14.055-13.326-14.906zm-269.535 111.758c-7.512 3.158-16.481-.494-19.643-8.01-.002-.006-7.244-17.218-7.244-17.218h-52.43l-7.33 17.264c-3.189 7.511-12.175 11.126-19.669 7.944-7.625-3.237-11.182-12.044-7.945-19.669l45.009-106.007c2.72-6.406 9.449-10.652 16.305-10.652 6.983 0 13.658 4.28 16.356 10.693.031.073 44.601 106.012 44.601 106.012 3.212 7.636-.374 16.43-8.01 19.643zm63.246-45.662c-3.487 0-9.345.024-14.938.052v31.784c0 8.284-6.716 15-15 15s-15-6.716-15-15v-107.522c0-3.79 1.511-7.565 4.115-10.314 2.8-2.958 6.813-4.686 10.885-4.686h29.938c25.329 0 45.937 20.341 45.937 45.343s-20.608 45.343-45.937 45.343zm87.936 31.835c0 8.284-6.716 15-15 15s-15-6.716-15-15v-107.521c0-8.284 6.716-15 15-15s15 6.716 15 15z"/></g></svg>